<?xml version="1.0" standalone="no"?>
<!DOCTYPE svg PUBLIC "-//W3C//DTD SVG 20010904//EN"
 "http://www.w3.org/TR/2001/REC-SVG-20010904/DTD/svg10.dtd">
<svg version="1.0" xmlns="http://www.w3.org/2000/svg"
 width="500.000000pt" height="500.000000pt" viewBox="0 0 500.000000 500.000000"
 preserveAspectRatio="xMidYMid meet">

<g transform="translate(0.000000,500.000000) scale(0.100000,-0.100000)"
fill="#000000" stroke="none">
<path d="M2287 4218 c2 -62 6 -150 9 -195 5 -75 8 -83 26 -83 18 0 20 5 17 63
l-4 62 80 6 c44 4 92 12 108 19 73 35 88 143 28 204 -31 31 -32 31 -149 34
l-119 4 4 -114z m211 71 c20 -7 34 -21 41 -41 33 -94 -18 -148 -142 -148 l-64
0 -6 91 c-4 50 -4 95 -1 100 7 13 134 11 172 -2z"/>
<path d="M2656 4193 c4 -21 20 -83 36 -138 15 -55 28 -110 28 -122 0 -22 -52
-73 -74 -73 -6 0 -22 7 -35 16 -17 13 -25 14 -34 4 -19 -18 19 -40 70 -40 30
0 49 6 63 20 28 28 222 322 216 328 -14 13 -42 -17 -105 -113 -38 -59 -71
-103 -74 -98 -3 4 -15 49 -27 98 -32 132 -40 155 -56 155 -12 0 -13 -8 -8 -37z"/>
<path d="M3025 4189 c-6 -27 -10 -30 -36 -24 -33 8 -42 -14 -9 -22 11 -3 20
-8 20 -12 0 -3 -14 -46 -30 -95 -17 -49 -30 -99 -30 -112 0 -30 54 -74 91 -74
42 0 37 26 -6 34 -54 10 -59 33 -29 118 48 132 38 119 83 103 25 -8 43 -10 46
-4 10 15 -3 27 -35 34 -37 8 -43 17 -31 48 8 20 6 27 -5 31 -22 9 -22 9 -29
-25z"/>
<path d="M3197 4012 c-53 -93 -97 -174 -97 -179 0 -6 6 -13 14 -16 9 -4 20 7
31 30 30 64 75 127 98 140 59 33 147 -12 147 -75 0 -21 -46 -116 -87 -178 -12
-19 -12 -22 2 -28 9 -3 18 -6 20 -6 7 0 93 167 99 193 16 66 -65 144 -140 135
-19 -2 -34 -2 -34 -1 0 2 16 33 36 68 32 59 37 85 15 85 -4 0 -51 -76 -104
-168z"/>
<path d="M1743 4062 c-12 -9 -27 -30 -33 -47 -11 -27 -13 -29 -24 -12 -15 19
-36 23 -36 6 0 -11 105 -215 122 -236 5 -6 16 -9 24 -6 10 4 3 25 -32 94 -51
99 -52 133 -8 168 13 10 24 24 24 29 0 19 -15 21 -37 4z"/>
<path d="M2057 3934 c-13 -13 -7 -42 10 -48 21 -8 36 6 31 30 -3 19 -29 30
-41 18z"/>
<path d="M1485 3900 c-17 -5 -44 -23 -60 -40 -38 -40 -46 -119 -16 -168 45
-71 129 -91 203 -50 36 21 78 78 78 108 0 20 -28 10 -34 -13 -17 -68 -126
-111 -176 -68 -25 21 -25 21 -5 35 29 22 113 87 147 116 l30 26 -34 26 c-40
30 -90 41 -133 28z m80 -34 c19 -8 35 -19 35 -24 0 -5 -36 -36 -79 -69 -87
-67 -101 -67 -101 -2 0 41 21 71 65 94 37 18 38 18 80 1z"/>
<path d="M3510 3823 c-29 -10 -80 -67 -91 -100 -13 -42 -5 -81 27 -124 33 -45
60 -58 121 -59 41 0 58 5 83 26 84 72 79 189 -12 244 -31 19 -94 25 -128 13z
m103 -37 c22 -9 39 -26 51 -54 17 -38 17 -45 5 -79 -17 -43 -69 -83 -108 -83
-37 0 -90 35 -102 68 -27 70 29 159 104 161 10 1 32 -5 50 -13z"/>
<path d="M1223 3660 c-43 -26 -67 -65 -68 -111 0 -44 -2 -45 -25 -24 -15 13
-19 14 -29 1 -10 -12 15 -36 140 -140 84 -69 156 -123 161 -120 19 12 5 34
-48 75 l-55 43 48 18 c117 43 125 201 12 258 -49 25 -95 25 -136 0z m135 -39
c65 -48 69 -129 8 -176 -51 -39 -99 -34 -147 14 -45 45 -51 87 -20 135 41 62
97 71 159 27z"/>
<path d="M3750 3548 c-47 -33 -99 -69 -117 -80 -20 -12 -30 -25 -26 -34 3 -8
8 -14 13 -14 4 0 44 25 89 55 46 31 94 55 108 55 38 0 93 -60 93 -101 0 -19
-4 -39 -8 -45 -8 -14 -118 -96 -152 -114 -20 -11 -21 -14 -7 -27 14 -14 24 -9
101 48 114 86 127 116 81 195 -20 34 -35 46 -66 56 -35 10 -39 14 -25 23 17
13 21 31 9 38 -5 3 -46 -22 -93 -55z"/>
<path d="M1052 3373 c-35 -7 -89 -64 -101 -109 -19 -70 8 -132 72 -163 53 -26
80 -26 135 -1 33 15 47 29 62 62 24 53 25 76 3 129 -13 34 -25 46 -67 65 -51
24 -60 25 -104 17z m113 -65 c48 -44 55 -90 23 -138 -43 -64 -121 -70 -179
-14 -50 48 -48 103 6 157 41 40 103 38 150 -5z"/>
<path d="M4090 3117 c-58 -16 -135 -39 -172 -49 -79 -22 -78 -20 -44 -128 32
-104 48 -132 95 -164 112 -78 272 -9 297 127 7 44 -43 248 -61 246 -5 -1 -57
-15 -115 -32z m124 -82 c29 -115 16 -182 -44 -225 -42 -30 -125 -38 -167 -17
-41 22 -79 81 -98 152 -21 81 -20 82 23 90 20 3 80 19 132 35 137 42 135 42
154 -35z"/>
<path d="M747 3093 c-4 -3 -7 -10 -7 -14 0 -11 371 -131 387 -125 7 3 13 9 13
14 0 8 -356 132 -378 132 -5 0 -12 -3 -15 -7z"/>
<path d="M887 2908 c-51 -14 -90 -71 -90 -132 0 -100 104 -162 209 -126 42 15
84 83 84 137 0 48 -18 95 -34 90 -11 -4 -11 -12 1 -69 12 -62 -43 -138 -101
-138 -16 0 -18 5 -13 38 28 192 29 195 15 203 -16 10 -21 10 -71 -3z m53 -34
c0 -40 -33 -194 -42 -194 -5 0 -23 13 -39 29 -52 52 -34 137 35 167 41 17 46
17 46 -2z"/>
<path d="M4014 2670 c-48 -24 -79 -81 -77 -141 2 -38 24 -92 43 -104 18 -11
23 25 6 44 -10 11 -16 36 -16 69 0 43 4 55 31 81 17 17 39 31 50 31 18 0 19
-8 19 -104 0 -57 3 -111 6 -120 19 -49 125 13 144 85 33 120 -93 217 -206 159z
m156 -57 c28 -31 31 -42 27 -75 -3 -21 -11 -46 -18 -54 -13 -16 -69 -48 -74
-42 -1 2 -5 49 -8 106 -5 101 -5 102 18 102 14 0 36 -14 55 -37z"/>
<path d="M772 2595 c3 -16 41 -35 233 -114 16 -7 -3 -19 -102 -67 -88 -42
-123 -63 -123 -76 0 -15 9 -13 73 16 193 89 207 97 207 119 0 19 -20 30 -136
77 -75 30 -141 57 -146 59 -5 2 -8 -5 -6 -14z"/>
<path d="M4072 2322 c-102 -26 -146 -42 -154 -55 -5 -10 -8 -20 -6 -21 5 -5
188 -126 231 -152 33 -22 37 -22 37 -6 0 11 -39 43 -111 91 -73 49 -106 77
-97 81 7 4 66 20 131 35 97 23 117 31 117 46 0 11 -1 19 -2 18 -2 0 -67 -17
-146 -37z"/>
<path d="M885 2285 c-45 -20 -79 -86 -71 -138 15 -89 86 -135 179 -115 64 13
99 54 105 121 5 60 -15 119 -47 136 -31 17 -34 -3 -6 -45 34 -50 33 -102 -1
-143 -47 -56 -54 -46 -89 119 -8 41 -15 76 -15 78 0 5 -27 -1 -55 -13z m44
-62 c5 -21 16 -66 24 -100 l14 -63 -24 0 c-90 0 -136 125 -66 180 35 27 41 26
52 -17z"/>
<path d="M3938 2080 c-66 -20 -109 -79 -110 -152 0 -39 7 -58 24 -58 6 0 8 12
4 31 -7 34 19 104 47 127 19 16 97 29 97 16 0 -5 -18 -58 -41 -118 -45 -121
-44 -126 25 -126 134 0 188 188 74 258 -41 25 -85 33 -120 22z m131 -76 c45
-57 11 -154 -60 -169 -47 -10 -55 6 -34 62 35 93 54 133 64 133 5 0 19 -12 30
-26z"/>
<path d="M976 1965 c-21 -7 -52 -26 -68 -42 -75 -71 -78 -142 -12 -275 25 -51
46 -94 48 -95 4 -4 106 45 244 115 l102 52 -46 89 c-53 102 -92 145 -149 160
-51 14 -71 13 -119 -4z m139 -42 c21 -10 47 -36 64 -62 28 -44 64 -122 59
-126 -11 -8 -270 -135 -276 -135 -11 0 -68 118 -77 157 -25 121 113 222 230
166z"/>
<path d="M3753 1804 c-7 -19 1 -25 185 -129 117 -67 156 -85 165 -76 9 9 6 17
-13 31 -14 11 -28 20 -32 20 -4 0 -73 38 -153 85 -115 67 -147 81 -152 69z"/>
<path d="M3690 1669 c-100 -40 -128 -177 -49 -243 77 -65 170 -54 222 26 23
35 28 51 24 89 -8 98 -109 163 -197 128z m83 -33 c51 -22 80 -59 80 -105 0
-50 -25 -89 -69 -107 -67 -28 -154 34 -154 110 0 46 25 85 65 102 38 17 39 17
78 0z"/>
<path d="M3423 1549 c-10 -10 -1 -26 38 -76 l51 -63 -47 0 c-42 0 -52 -5 -86
-39 -36 -35 -39 -43 -39 -92 0 -69 24 -110 82 -138 55 -26 71 -26 123 -1 45
22 75 64 75 106 l0 27 23 -22 c19 -17 26 -19 35 -9 8 10 -3 29 -45 78 -31 35
-73 87 -94 115 -76 101 -103 127 -116 114z m119 -185 c96 -67 59 -205 -55
-204 -121 1 -160 162 -53 214 44 22 65 20 108 -10z"/>
<path d="M1355 1516 c-67 -31 -112 -102 -100 -162 10 -57 65 -110 127 -123
l26 -6 -53 -59 c-50 -55 -59 -76 -33 -76 6 0 56 48 112 107 55 59 116 123 134
142 17 19 32 38 32 42 0 18 -23 20 -41 3 -18 -16 -19 -16 -19 9 0 89 -106 159
-185 123z m126 -62 c42 -41 47 -85 15 -134 -64 -96 -206 -62 -206 51 0 40 36
93 74 110 34 14 87 2 117 -27z"/>
<path d="M1640 1295 c0 -10 10 -15 31 -15 36 0 94 -32 109 -60 11 -20 14 -93
4 -103 -3 -3 -36 13 -72 35 -93 57 -131 78 -141 78 -12 0 -31 -56 -31 -89 0
-33 31 -85 63 -106 69 -45 160 -22 203 50 37 64 31 117 -20 173 -40 45 -146
71 -146 37z m43 -155 c42 -25 77 -51 77 -57 0 -16 -52 -43 -82 -43 -40 0 -86
36 -97 74 -11 40 -4 78 13 74 6 -2 46 -23 89 -48z"/>
<path d="M3134 1221 c-43 -20 -90 -74 -79 -91 10 -17 25 -11 36 14 17 36 83
69 123 62 36 -7 82 -44 69 -56 -4 -5 -49 -29 -100 -54 -50 -25 -94 -50 -98
-56 -9 -14 24 -59 56 -76 61 -31 147 -8 185 52 24 36 22 118 -3 152 -50 66
-119 86 -189 53z m176 -140 c0 -87 -101 -134 -167 -77 -15 13 -26 26 -23 29
11 11 166 86 178 87 7 0 12 -14 12 -39z"/>
<path d="M1964 1108 c-45 -71 -115 -180 -151 -233 -38 -58 -40 -65 -15 -65 10
0 31 22 52 56 19 31 40 63 45 73 50 80 107 162 110 160 1 -2 9 -80 16 -174 11
-154 18 -184 41 -185 7 0 175 252 185 276 12 32 21 9 27 -68 3 -46 9 -125 12
-175 6 -84 9 -93 27 -93 17 0 19 5 13 53 -3 28 -11 117 -17 197 -11 132 -18
159 -42 160 -4 0 -50 -66 -103 -146 -53 -80 -98 -144 -99 -142 -2 2 -9 81 -16
176 -13 169 -13 172 -36 172 -16 0 -31 -13 -49 -42z"/>
<path d="M2936 1141 c-3 -5 -1 -22 5 -38 6 -15 17 -56 25 -89 17 -74 7 -112
-36 -137 -18 -11 -27 -23 -24 -32 5 -13 10 -13 35 0 16 9 35 28 43 43 l14 27
7 -27 c4 -17 12 -25 21 -21 20 8 17 24 -25 158 -37 113 -51 139 -65 116z"/>
<path d="M2614 1065 c-8 -20 4 -35 26 -35 23 0 32 13 24 34 -8 20 -43 21 -50
1z"/>
</g>
</svg>
